# xmcd
#
# Track frame offsets:
#	150
#	16303
#	31408
#	48427
#	64901
#	74958
#	88763
#	110071
#	131269
#	147707
#	166230
#	191638
#	205127
#
# Disc length: 3053 seconds
#
# Revision: 1
# Processed by: cddbd v1.5.1PL0 Copyright (c) Steve Scherf et al.
# Submitted via: audiograbber 1.83.01
#
DISCID=c80beb0d
DTITLE=Keith Donald - The calm after the storm
DYEAR=2004
DGENRE=Blues
TTITLE0=Baby don't cry
TTITLE1=My dark haired beauty
TTITLE2=I lie beside your grave
TTITLE3=Lamment for Donouth of Balea
TTITLE4=The castle of Dromore
TTITLE5=Young Donal
TTITLE6=The soft deal board
TTITLE7=The bright mountain of Cua
TTITLE8=The green fields of autumn
TTITLE9=At the edge of the white rock
TTITLE10=Bright Vision
TTITLE11=Darkest Midnight
TTITLE12=Mairin de Barra
EXTD=
EXTT0=
EXTT1=
EXTT2=
EXTT3=
EXTT4=
EXTT5=
EXTT6=
EXTT7=
EXTT8=
EXTT9=
EXTT10=
EXTT11=
EXTT12=
PLAYORDER=
